#!OML:ASF F:\VICON\USERDATA\INSTALL\rory3\rory3.ASF
:FULLY-SPECIFIED
:DEGREES
612
root -0.00703988 16.9192 33.569 11.3364 -4.81899 -2.12459
lowerback -13.0105 2.3009 4.99569
upperback -5.1316 2.4288 -0.138164
thorax 2.09809 1.16001 -2.60128
lowerneck -14.3571 -2.85152 -6.84363
upperneck 28.194 -3.8797 5.41691
head 11.8479 -1.80638 2.63888
rclavicle 1.16165e-014 2.32081e-014
rhumerus -39.2294 0.403472 -88.5566
rradius 30.5254
rwrist 2.66411
rhand -27.1357 -46.6084
rfingers 7.12502
rthumb -0.551189 -76.5875
lclavicle 1.16165e-014 2.32081e-014
lhumerus -44.8533 -0.599675 83.6259
lradius 29.4785
lwrist 7.82288
lhand -31.7296 -22.4322
lfingers 7.12502
lthumb -4.98763 7.48907
rfemur 1.26831 6.50271 23.7541
rtibia 29.7306
rfoot -7.29702 1.58193
rtoes -26.5278
lfemur -37.9266 -6.16281 -18.7562
ltibia 32.8153
lfoot -5.68069 4.53086
ltoes 3.24422
613
root -0.0307726 16.9226 33.7441 11.0263 -5.50521 -2.00284
lowerback -12.499 2.3402 4.17213
upperback -5.51189 2.60889 0.0431971
thorax 1.3997 1.24045 -1.94826
lowerneck -13.9242 -2.80366 -7.06265
upperneck 28.5227 -3.8324 5.53532
head 11.8919 -1.8028 2.73746
rclavicle -3.26877e-014 -2.28105e-014
rhumerus -40.4593 0.0633152 -88.1614
rradius 30.3632
rwrist 3.95224
rhand -25.045 -48.1067
rfingers 7.12502
rthumb 1.46809 -78.0814
lclavicle -3.26877e-014 -2.28105e-014
lhumerus -45.4554 -0.760134 83.7791
lradius 29.5292
lwrist 7.93694
lhand -31.9682 -22.9897
lfingers 7.12502
lthumb -5.218 6.9261
rfemur 0.785632 7.25028 23.549
rtibia 31.5229
rfoot -5.39169 2.21917
rtoes -27.5454
lfemur -37.1998 -5.71992 -18.9497
ltibia 33.2583
lfoot -6.48861 4.65909
ltoes 3.14787
614
root 0.0542429 16.9236 33.9192 11.1813 -4.51348 -1.80808
lowerback -12.9658 2.1787 5.08858
upperback -5.56345 2.27072 -0.170264
thorax 1.61125 1.0609 -2.72058
lowerneck -12.7982 -2.42637 -7.3807
upperneck 27.8904 -3.35328 5.8703
head 11.389 -1.59182 2.97789
rclavicle -2.47238e-015 1.53064e-014
rhumerus -40.965 0.329759 -88.3013
rradius 29.9636
rwrist 2.56948
rhand -26.4419 -47.9359
rfingers 7.12502
rthumb 0.118969 -77.9156
lclavicle -2.47238e-015 1.53064e-014
lhumerus -45.2917 -1.15233 84.0817
lradius 29.6289
lwrist 8.29157
lhand -32.1918 -23.5413
lfingers 7.12502
lthumb -5.4339 6.36906
rfemur 0.028609 4.83025 22.4417
rtibia 33.5044
rfoot -4.32523 4.59312
rtoes -29.6445
lfemur -36.8685 -6.31025 -19.7359
ltibia 33.581
lfoot -7.21638 4.35945
ltoes 3.32801
615
root 0.0571083 16.9279 34.0893 10.9533 -4.69488 -1.89933
lowerback -13.6754 2.30218 5.15443
upperback -5.06652 2.36839 -0.160019
thorax 2.52575 1.1385 -2.70139
lowerneck -14.9844 -3.05006 -6.85617
upperneck 29.1568 -4.05742 5.06851
head 12.3682 -1.92735 2.4955
rclavicle 2.0686e-015 9.93923e-017
rhumerus -40.8503 0.0902988 -88.2317
rradius 29.8728
rwrist 2.47281
rhand -27.7781 -46.4191
rfingers 7.12502
rthumb -1.1716 -76.3956
lclavicle 2.0686e-015 9.93923e-017
lhumerus -44.5249 -1.47521 84.2153
lradius 30.1289
lwrist 8.76096
lhand -31.7769 -23.3315
lfingers 7.12502
lthumb -5.03335 6.58869
rfemur -0.677376 5.01807 22.3671
rtibia 35.7449
rfoot -3.1682 5.27073
rtoes -31.7258
lfemur -36.079 -5.99646 -19.8583
ltibia 33.7866
lfoot -7.81619 4.40622
ltoes 3.52054
616
root 0.0683247 16.9312 34.2204 10.7691 -4.83451 -1.43883
lowerback -12.7485 2.17009 4.46951
upperback -5.61318 2.34478 -0.158995
thorax 1.42845 1.10147 -2.35734
lowerneck -14.211 -2.83645 -6.92318
upperneck 29.2144 -3.82074 5.18391
head 12.2154 -1.82631 2.59344
rclavicle 4.06142e-014 1.07344e-014
rhumerus -42.12 0.0339866 -87.9743
rradius 30.0104
rwrist 3.33654
rhand -26.9197 -47.0111
rfingers 7.12502
rthumb -0.342485 -76.9906
lclavicle 4.06142e-014 1.07344e-014
lhumerus -45.2508 -1.48667 84.3301
lradius 31.0255
lwrist 9.28102
lhand -31.4751 -25.5382
lfingers 7.12502
lthumb -4.7419 4.38878
rfemur -1.78913 5.10289 21.6507
rtibia 38.1924
rfoot -1.74429 6.04073
rtoes -32.2418
lfemur -35.4334 -5.81539 -20.5655
ltibia 33.8647
lfoot -8.27364 4.40639
ltoes 3.51306
